<?xml version="1.0" encoding="UTF-8" standalone="no"?>
<!DOCTYPE svg PUBLIC "-//W3C//DTD SVG 20010904//EN"
              "http://www.w3.org/TR/2001/REC-SVG-20010904/DTD/svg10.dtd">

<svg xmlns="http://www.w3.org/2000/svg"
     width="7.11111in" height="7.11111in"
     viewBox="0 0 512 512">
  <path id="Selection #1"
        fill="none" stroke="black" stroke-width="1"
        d="M 459.00,184.00
           C 459.00,184.00 462.00,184.00 462.00,184.00
             462.00,184.00 467.28,202.00 467.28,202.00
             467.28,202.00 474.58,230.00 474.58,230.00
             485.47,279.33 487.36,321.48 459.58,366.00
             451.86,378.37 446.33,384.53 435.00,393.74
             424.56,402.23 411.88,409.89 399.00,413.97
             379.99,420.00 359.69,421.43 340.00,418.57
             340.00,418.57 318.00,414.12 318.00,414.12
             315.79,413.53 310.12,411.47 308.21,411.92
             305.34,412.61 303.66,417.52 302.54,420.00
             298.88,428.11 295.52,436.50 292.88,445.00
             292.02,447.77 290.74,454.24 287.73,455.23
             285.37,456.00 274.85,452.83 272.00,452.00
             273.28,443.74 281.16,424.47 284.55,416.00
             297.68,383.21 316.69,353.96 343.00,330.17
             365.01,310.27 382.26,300.84 407.00,286.00
             369.22,293.60 327.69,314.80 302.29,344.00
             295.85,351.40 287.75,362.31 283.26,371.00
             280.89,375.57 276.84,386.42 273.00,389.00
             270.20,375.08 265.17,361.36 265.00,347.00
             264.87,335.92 266.36,321.55 269.75,311.00
             281.81,273.40 314.82,247.32 351.00,234.69
             351.00,234.69 388.00,224.65 388.00,224.65
             415.52,218.34 445.53,211.95 459.00,184.00 Z" />
</svg>
