<?xml version="1.0" encoding="UTF-8" standalone="no"?>
<!DOCTYPE svg PUBLIC "-//W3C//DTD SVG 20010904//EN"
              "http://www.w3.org/TR/2001/REC-SVG-20010904/DTD/svg10.dtd">

<svg xmlns="http://www.w3.org/2000/svg"
     width="7.11111in" height="7.11111in"
     viewBox="0 0 512 512">
  <path id="Selection"
        fill="none" stroke="black" stroke-width="1"
        d="M 230.00,56.00
           C 236.01,57.14 240.73,60.60 246.00,63.58
             246.00,63.58 268.00,76.05 268.00,76.05
             301.90,97.52 334.57,123.56 349.80,162.00
             354.79,174.60 357.37,185.65 359.12,199.00
             359.73,202.21 360.87,209.79 359.12,212.49
             357.22,214.99 349.10,216.79 346.00,217.86
             334.70,221.78 326.50,225.55 316.00,231.31
             291.65,244.68 268.07,270.45 257.00,296.00
             257.00,296.00 255.00,296.00 255.00,296.00
             249.73,283.50 250.79,278.81 249.91,266.00
             249.91,266.00 249.00,254.00 249.00,254.00
             248.98,237.98 251.95,216.72 255.42,201.00
             255.42,201.00 263.00,168.00 263.00,168.00
             263.00,168.00 254.87,182.00 254.87,182.00
             254.87,182.00 246.31,199.00 246.31,199.00
             237.87,217.42 232.65,236.97 230.00,257.00
             223.93,254.13 220.04,248.61 215.00,244.30
             209.21,239.34 197.82,232.23 191.00,228.44
             187.61,226.55 175.97,222.47 174.57,219.59
             173.22,216.78 174.70,209.15 175.25,206.00
             177.58,192.60 182.71,180.09 188.75,168.00
             188.75,168.00 216.60,121.00 216.60,121.00
             225.39,106.33 233.20,91.48 233.00,74.00
             232.91,66.38 231.02,63.23 230.00,56.00 Z
           M 265.00,166.00
           C 265.00,166.00 264.00,166.00 264.00,166.00
             264.00,166.00 265.00,167.00 265.00,167.00
             265.00,167.00 265.00,166.00 265.00,166.00 Z" />
</svg>
