<?xml version="1.0" encoding="UTF-8" standalone="no"?>
<!DOCTYPE svg PUBLIC "-//W3C//DTD SVG 20010904//EN"
              "http://www.w3.org/TR/2001/REC-SVG-20010904/DTD/svg10.dtd">

<svg xmlns="http://www.w3.org/2000/svg"
     width="5.31944in" height="2.38889in"
     viewBox="0 0 383 172">
  <path id="Selection"
        fill="none" stroke="black" stroke-width="1"
        d="M 153.00,38.00
           C 157.09,11.93 193.72,-1.05 217.00,1.17
             233.62,2.75 251.38,8.10 262.82,21.00
             269.62,28.68 270.62,36.36 272.72,38.40
             274.90,40.52 279.14,39.89 282.00,40.09
             286.68,40.41 291.56,41.51 296.00,43.00
             303.43,45.51 308.44,48.22 313.91,54.01
             315.83,56.05 319.79,62.04 321.38,62.97
             323.03,63.88 334.09,62.97 337.00,62.97
             356.10,63.23 381.58,76.94 379.67,99.00
             377.95,118.91 359.81,128.78 342.00,131.72
             342.00,131.72 326.17,131.72 326.17,131.72
             323.65,132.58 321.02,136.01 318.99,137.82
             315.66,140.77 312.03,142.86 308.00,144.69
             288.27,153.65 260.71,151.66 243.00,139.00
             234.49,153.80 219.82,161.57 204.00,166.41
             177.85,174.42 148.78,174.09 123.00,164.78
             115.48,162.07 109.47,159.35 103.00,154.49
             100.46,152.58 94.55,146.52 91.91,146.11
             90.10,145.83 85.17,147.52 83.00,147.99
             77.15,149.25 70.98,149.99 65.00,150.00
             43.15,150.03 12.68,144.28 2.52,122.00
             -7.70,99.61 12.55,81.75 32.00,75.08
             32.00,75.08 52.83,69.98 52.83,69.98
             55.37,68.53 58.53,63.63 61.09,61.17
             65.74,56.70 73.75,52.28 80.00,50.60
             83.68,49.62 90.22,48.84 94.00,49.29
             96.31,49.56 102.62,51.15 104.42,50.52
             107.29,49.52 110.49,44.56 117.00,40.63
             128.52,33.68 140.62,33.98 153.00,38.00 Z" />
</svg>
