<?xml version="1.0" encoding="UTF-8" standalone="no"?>
<!DOCTYPE svg PUBLIC "-//W3C//DTD SVG 20010904//EN"
              "http://www.w3.org/TR/2001/REC-SVG-20010904/DTD/svg10.dtd">

<svg xmlns="http://www.w3.org/2000/svg"
     width="6.34921mm" height="6.34921mm"
     viewBox="0 0 24 24">
  <path id="Selection"
        fill="none" stroke="black" stroke-width="1"
        d="M 11.51,0.87
           C 12.31,0.82 12.63,1.26 13.15,1.74
             13.15,1.74 15.62,4.09 15.62,4.09
             15.62,4.09 20.14,8.33 20.14,8.33
             21.09,9.20 21.94,9.72 21.95,11.05
             21.95,11.05 21.95,15.52 21.95,15.52
             21.95,15.52 21.95,19.76 21.95,19.76
             21.94,21.04 21.14,21.88 19.73,21.87
             19.73,21.87 5.67,21.87 5.67,21.87
             5.67,21.87 4.19,21.87 4.19,21.87
             4.19,21.87 3.12,21.87 3.12,21.87
             2.37,21.73 1.74,21.18 1.52,20.52
             1.40,20.17 1.40,19.97 1.40,19.61
             1.40,19.61 1.40,11.21 1.40,11.21
             1.40,9.79 2.01,9.58 2.95,8.63
             2.95,8.63 6.25,5.53 6.25,5.53
             6.25,5.53 7.32,4.47 7.32,4.47
             7.32,4.47 9.94,2.04 9.94,2.04
             10.47,1.55 10.74,1.05 11.51,0.87 Z
           M 19.73,19.84
           C 19.73,19.84 19.73,11.51 19.73,11.51
             19.73,11.35 19.74,11.12 19.68,10.98
             19.56,10.68 18.77,10.03 18.49,9.77
             18.49,9.77 17.59,8.86 17.59,8.86
             17.59,8.86 15.29,6.74 15.29,6.74
             15.29,6.74 12.58,4.16 12.58,4.16
             12.37,3.97 11.90,3.39 11.59,3.50
             11.38,3.57 10.79,4.14 10.60,4.32
             10.60,4.32 9.21,5.60 9.21,5.60
             9.21,5.60 8.47,6.36 8.47,6.36
             8.47,6.36 5.84,8.78 5.84,8.78
             5.84,8.78 4.93,9.69 4.93,9.69
             4.64,9.96 3.79,10.68 3.67,10.98
             3.61,11.12 3.62,11.35 3.62,11.51
             3.62,11.51 3.62,19.84 3.62,19.84
             3.62,19.84 7.15,19.84 7.15,19.84
             7.15,19.84 7.15,12.64 7.15,12.64
             7.16,11.78 7.65,11.43 8.55,11.43
             8.55,11.43 14.79,11.43 14.79,11.43
             15.93,11.43 16.27,11.96 16.27,12.95
             16.27,12.95 16.27,19.84 16.27,19.84
             16.27,19.84 19.73,19.84 19.73,19.84 Z
           M 14.05,13.48
           C 14.05,13.48 9.37,13.48 9.37,13.48
             9.37,13.48 9.37,19.84 9.37,19.84
             9.37,19.84 14.05,19.84 14.05,19.84
             14.05,19.84 14.05,13.48 14.05,13.48 Z" />
</svg>
