<?xml version="1.0" encoding="UTF-8" standalone="no"?>
<!DOCTYPE svg PUBLIC "-//W3C//DTD SVG 20010904//EN"
              "http://www.w3.org/TR/2001/REC-SVG-20010904/DTD/svg10.dtd">

<svg xmlns="http://www.w3.org/2000/svg"
     width="3.96825mm" height="4.2328mm"
     viewBox="0 0 15 16">
  <path id="Selection"
        fill="none" stroke="black" stroke-width="1"
        d="M 7.19,0.58
           C 7.69,0.55 7.89,0.84 8.22,1.16
             8.22,1.16 9.76,2.73 9.76,2.73
             9.76,2.73 12.59,5.55 12.59,5.55
             13.18,6.14 13.71,6.48 13.72,7.37
             13.72,7.37 13.72,10.35 13.72,10.35
             13.72,10.35 13.72,13.17 13.72,13.17
             13.71,14.03 13.21,14.59 12.33,14.58
             12.33,14.58 3.54,14.58 3.54,14.58
             3.54,14.58 2.62,14.58 2.62,14.58
             2.62,14.58 1.95,14.58 1.95,14.58
             1.48,14.49 1.09,14.12 0.95,13.68
             0.87,13.44 0.87,13.31 0.87,13.07
             0.87,13.07 0.87,7.47 0.87,7.47
             0.87,6.53 1.26,6.39 1.84,5.75
             1.84,5.75 3.90,3.68 3.90,3.68
             3.90,3.68 4.57,2.98 4.57,2.98
             4.57,2.98 6.22,1.36 6.22,1.36
             6.54,1.03 6.71,0.70 7.19,0.58 Z
           M 12.33,13.22
           C 12.33,13.22 12.33,7.67 12.33,7.67
             12.33,7.57 12.33,7.42 12.30,7.32
             12.22,7.12 11.73,6.68 11.56,6.51
             11.56,6.51 10.99,5.91 10.99,5.91
             10.99,5.91 9.56,4.49 9.56,4.49
             9.56,4.49 7.86,2.78 7.86,2.78
             7.73,2.65 7.44,2.26 7.24,2.33
             7.11,2.38 6.75,2.76 6.63,2.88
             6.63,2.88 5.76,3.74 5.76,3.74
             5.76,3.74 5.29,4.24 5.29,4.24
             5.29,4.24 3.65,5.85 3.65,5.85
             3.65,5.85 3.08,6.46 3.08,6.46
             2.90,6.64 2.37,7.12 2.29,7.32
             2.25,7.42 2.26,7.57 2.26,7.67
             2.26,7.67 2.26,13.22 2.26,13.22
             2.26,13.22 4.47,13.22 4.47,13.22
             4.47,13.22 4.47,8.43 4.47,8.43
             4.48,7.85 4.78,7.62 5.34,7.62
             5.34,7.62 9.25,7.62 9.25,7.62
             9.95,7.62 10.17,7.98 10.17,8.63
             10.17,8.63 10.17,13.22 10.17,13.22
             10.17,13.22 12.33,13.22 12.33,13.22 Z
           M 8.78,8.98
           C 8.78,8.98 5.86,8.98 5.86,8.98
             5.86,8.98 5.86,13.22 5.86,13.22
             5.86,13.22 8.78,13.22 8.78,13.22
             8.78,13.22 8.78,8.98 8.78,8.98 Z" />
</svg>
