<?xml version="1.0" encoding="UTF-8" standalone="no"?>
<!DOCTYPE svg PUBLIC "-//W3C//DTD SVG 20010904//EN"
              "http://www.w3.org/TR/2001/REC-SVG-20010904/DTD/svg10.dtd">

<svg xmlns="http://www.w3.org/2000/svg"
     width="3.96825mm" height="4.49735mm"
     viewBox="0 0 15 17">
  <path id="Selection"
        fill="none" stroke="black" stroke-width="1"
        d="M 7.33,0.38
           C 7.89,0.34 8.11,0.68 8.47,1.05
             8.47,1.05 10.19,2.86 10.19,2.86
             10.19,2.86 13.34,6.13 13.34,6.13
             14.00,6.81 14.60,7.21 14.60,8.24
             14.60,8.24 14.60,11.68 14.60,11.68
             14.60,11.68 14.60,14.96 14.60,14.96
             14.60,15.94 14.04,16.59 13.05,16.59
             13.05,16.59 3.26,16.59 3.26,16.59
             3.26,16.59 2.23,16.59 2.23,16.59
             2.23,16.59 1.49,16.59 1.49,16.59
             0.96,16.48 0.52,16.05 0.37,15.54
             0.29,15.27 0.29,15.12 0.29,14.84
             0.29,14.84 0.29,8.35 0.29,8.35
             0.29,7.27 0.71,7.10 1.36,6.37
             1.36,6.37 3.66,3.97 3.66,3.97
             3.66,3.97 4.41,3.15 4.41,3.15
             4.41,3.15 6.24,1.29 6.24,1.29
             6.60,0.90 6.79,0.52 7.33,0.38 Z
           M 13.05,15.01
           C 13.05,15.01 13.05,8.59 13.05,8.59
             13.05,8.47 13.06,8.29 13.02,8.18
             12.94,7.95 12.39,7.45 12.19,7.24
             12.19,7.24 11.56,6.54 11.56,6.54
             11.56,6.54 9.96,4.91 9.96,4.91
             9.96,4.91 8.07,2.92 8.07,2.92
             7.93,2.77 7.60,2.32 7.38,2.40
             7.24,2.46 6.83,2.90 6.70,3.04
             6.70,3.04 5.73,4.03 5.73,4.03
             5.73,4.03 5.21,4.62 5.21,4.62
             5.21,4.62 3.38,6.48 3.38,6.48
             3.38,6.48 2.75,7.19 2.75,7.19
             2.55,7.39 1.95,7.94 1.87,8.18
             1.83,8.29 1.83,8.47 1.83,8.59
             1.83,8.59 1.83,15.01 1.83,15.01
             1.83,15.01 4.29,15.01 4.29,15.01
             4.29,15.01 4.29,9.46 4.29,9.46
             4.30,8.79 4.64,8.53 5.27,8.53
             5.27,8.53 9.62,8.53 9.62,8.53
             10.41,8.53 10.65,8.94 10.65,9.70
             10.65,9.70 10.65,15.01 10.65,15.01
             10.65,15.01 13.05,15.01 13.05,15.01 Z
           M 9.10,10.11
           C 9.10,10.11 5.84,10.11 5.84,10.11
             5.84,10.11 5.84,15.01 5.84,15.01
             5.84,15.01 9.10,15.01 9.10,15.01
             9.10,15.01 9.10,10.11 9.10,10.11 Z" />
</svg>
